<svg width="11636" height="758" viewBox="0 0 11636 758" fill="none" xmlns="http://www.w3.org/2000/svg">
<path d="M0 757.498L0 713.5C73.5 738.5 323.208 757.498 484.812 646.648C646.417 535.798 864.569 350.28 969.625 277.148C1322.5 31.5 1862.78 -53.2694 2024.38 32.9976C2185.98 118.661 1777.65 585.567 1939.25 548.165C2100.85 511.667 2262.46 412.128 2424.06 326.465C2585.67 240.198 2747.27 166.298 2908.88 190.881C3070.48 216.067 3232.08 338.228 3393.69 437.315C3555.29 535.798 3716.9 609.698 3878.5 548.165C4040.1 486.028 4201.71 289.967 4363.31 289.515C4524.92 289.967 4686.52 486.028 4848.12 572.748C5009.73 659.467 5171.33 633.828 5332.94 646.648C5494.54 659.467 5656.15 707.728 5817.75 708.181C5979.35 707.728 6140.96 659.467 6302.56 597.331C6464.17 535.798 6625.77 461.898 6787.38 400.365C6948.98 338.228 7110.58 289.967 7272.19 252.565C7433.79 216.067 7595.4 190.428 7757 190.881C7918.6 190.428 8080.21 216.067 8241.81 301.731C8403.42 387.998 8565.02 535.798 8726.62 535.798C8888.23 535.798 9049.83 387.998 9211.44 351.048C9373.04 314.098 9534.65 387.998 9696.25 449.531C9857.85 511.667 10019.5 559.928 10181.1 560.381C10342.7 559.928 10504.3 511.667 10665.9 461.898C10827.5 412.128 10989.1 363.867 11150.7 375.631C11312.3 387.998 11473.9 461.898 11554.7 498.848L11635.5 535.798V18.4976H11554.7C11473.9 18.4976 11312.3 18.4976 11150.7 18.4976C10989.1 18.4976 10827.5 18.4976 10665.9 18.4976C10504.3 18.4976 10342.7 18.4976 10181.1 18.4976C10019.5 18.4976 9857.85 18.4976 9696.25 18.4976C9534.65 18.4976 9373.04 18.4976 9211.44 18.4976C9049.83 18.4976 8888.23 18.4976 8726.62 18.4976C8565.02 18.4976 8403.42 18.4976 8241.81 18.4976C8080.21 18.4976 7918.6 18.4976 7757 18.4976C7595.4 18.4976 7433.79 18.4976 7272.19 18.4976C7110.58 18.4976 6948.98 18.4976 6787.38 18.4976C6625.77 18.4976 6464.17 18.4976 6302.56 18.4976C6140.96 18.4976 5979.35 18.4976 5817.75 18.4976C5656.15 18.4976 5494.54 18.4976 5332.94 18.4976C5171.33 18.4976 5009.73 18.4976 4848.12 18.4976C4686.52 18.4976 4524.92 18.4976 4363.31 18.4976C4201.71 18.4976 4040.1 18.4976 3878.5 18.4976C3716.9 18.4976 3555.29 18.4976 3393.69 18.4976C3232.08 18.4976 3070.48 18.4976 2908.88 18.4976C2747.27 18.4976 2585.67 18.4976 2424.06 18.4976C2262.46 18.4976 2100.85 18.4976 1939.25 18.4976C1777.65 18.4976 1616.04 18.4976 1454.44 18.4976C1292.83 18.4976 1131.23 18.4976 969.625 18.4976C808.021 18.4976 646.417 18.4976 484.813 18.4976C323.208 18.4976 161.604 18.4976 80.8021 18.4976H0L0 757.498Z" fill="url(#paint0_linear_175_47042)"/>
<defs>
<linearGradient id="paint0_linear_175_47042" x1="-30.7941" y1="55.9954" x2="-30.7941" y2="794.996" gradientUnits="userSpaceOnUse">
<stop/>
<stop offset="1" stop-color="#3A3A3A"/>
</linearGradient>
</defs>
</svg>
