<svg width="26" height="26" viewBox="0 0 18 18" fill="none" xmlns="http://www.w3.org/2000/svg">
<path fill-rule="evenodd" clip-rule="evenodd" d="M8.66669 17.4001C13.3059 17.4001 17.0667 13.6393 17.0667 9.0001C17.0667 4.36091 13.3059 0.600098 8.66669 0.600098C4.0275 0.600098 0.266693 4.36091 0.266693 9.0001C0.266693 13.6393 4.0275 17.4001 8.66669 17.4001ZM12.5592 7.64256C12.9692 7.23251 12.9692 6.56769 12.5592 6.15764C12.1491 5.74758 11.4843 5.74758 11.0742 6.15764L7.61669 9.61517L6.25915 8.25764C5.8491 7.84758 5.18428 7.84758 4.77423 8.25764C4.36418 8.66769 4.36418 9.33251 4.77423 9.74256L6.87423 11.8426C7.28428 12.2526 7.9491 12.2526 8.35915 11.8426L12.5592 7.64256Z" fill="#22C55E"/>
</svg>
