<svg width="275" height="50" viewBox="0 0 441 55" fill="none" xmlns="http://www.w3.org/2000/svg">
<path d="M70.68 18.48H79.24V43H84.36V18.48H92.92V13.76H70.68V18.48ZM91.5944 33.08C91.5944 39.24 96.0344 43.48 102.154 43.48C108.274 43.48 112.714 39.24 112.714 33.08C112.714 26.92 108.274 22.68 102.154 22.68C96.0344 22.68 91.5944 26.92 91.5944 33.08ZM96.4744 33.08C96.4744 29.48 98.7944 27.04 102.154 27.04C105.514 27.04 107.834 29.48 107.834 33.08C107.834 36.68 105.514 39.12 102.154 39.12C98.7944 39.12 96.4744 36.68 96.4744 33.08ZM121.463 43V32.36C121.463 29.16 123.303 27.08 126.303 27.08C128.823 27.08 130.463 28.68 130.463 32V43H135.343V30.84C135.343 25.72 132.783 22.64 127.823 22.64C125.143 22.64 122.743 23.8 121.503 25.8L121.103 23.24H116.583V43H121.463ZM138.027 52.16C139.107 52.44 140.307 52.6 141.667 52.6C144.907 52.6 146.987 51.08 148.467 47.4L158.147 23.24H153.107L147.747 37.64L142.667 23.24H137.507L145.467 43.84L144.907 45.32C144.067 47.64 142.867 48.08 140.947 48.08H138.027V52.16ZM167.587 17.12C167.587 14.72 166.227 13.2 164.347 13.2C162.587 13.2 161.387 14.44 161.387 16.2C161.387 17.96 162.547 18.96 163.987 18.96C164.427 18.96 164.787 18.88 165.107 18.76C165.107 20.16 163.867 21.24 162.147 21.56V23.48C165.347 23.08 167.587 20.48 167.587 17.12ZM168.969 37C168.969 40.88 172.089 43.52 177.009 43.52C181.889 43.52 185.289 41.04 185.289 37.04C185.289 34 183.609 32.48 180.289 31.72L176.729 30.88C175.049 30.48 174.169 29.76 174.169 28.64C174.169 27.16 175.289 26.28 177.209 26.28C179.089 26.28 180.209 27.36 180.249 29.04H184.889C184.849 25.2 181.849 22.64 177.409 22.64C172.849 22.64 169.569 24.96 169.569 28.84C169.569 32 171.289 33.68 174.849 34.48L178.409 35.32C180.169 35.72 180.689 36.44 180.689 37.44C180.689 38.88 179.449 39.8 177.169 39.8C174.929 39.8 173.649 38.72 173.609 37H168.969ZM206.586 43H211.626L217.986 21.72L224.226 43H229.186L238.066 13.76H232.866L228.146 29.24C227.706 30.72 227.306 32.28 226.746 35C226.266 32.52 225.826 30.84 225.346 29.2L220.826 13.76H215.186L210.586 29.2C210.066 30.88 209.626 32.4 209.146 35C208.706 32.44 208.266 30.8 207.826 29.2L203.186 13.76H197.866L206.586 43ZM247.18 43.52C252.34 43.52 255.94 40.92 256.78 36.6H252.26C251.7 38.48 249.94 39.52 247.26 39.52C244.02 39.52 242.18 37.76 241.82 34.28L256.7 34.24V32.76C256.7 26.6 252.94 22.64 247.02 22.64C241.22 22.64 237.18 26.92 237.18 33.12C237.18 39.24 241.3 43.52 247.18 43.52ZM247.06 26.64C249.98 26.64 251.86 28.44 251.86 31.16H241.94C242.42 28.2 244.18 26.64 247.06 26.64ZM265.126 43L265.446 39.92C266.606 42.2 269.126 43.52 272.086 43.52C277.766 43.52 281.486 39.32 281.486 33.24C281.486 27 278.046 22.6 272.406 22.6C269.406 22.6 266.766 23.92 265.486 26.12V13.24H260.606V43H265.126ZM265.526 33.04C265.526 29.48 267.726 27 271.086 27C274.526 27 276.566 29.52 276.566 33.04C276.566 36.56 274.526 39.04 271.086 39.04C267.726 39.04 265.526 36.6 265.526 33.04ZM307.393 43C315.873 43 321.713 37.04 321.713 28.44C321.713 19.72 315.753 13.76 307.113 13.76H296.873V43H307.393ZM306.633 18.48C312.673 18.48 316.313 22.24 316.313 28.44C316.313 34.52 312.753 38.28 306.913 38.28H301.993V18.48H306.633ZM334.602 43.52C339.762 43.52 343.362 40.92 344.202 36.6H339.682C339.122 38.48 337.362 39.52 334.682 39.52C331.442 39.52 329.602 37.76 329.242 34.28L344.122 34.24V32.76C344.122 26.6 340.362 22.64 334.442 22.64C328.642 22.64 324.602 26.92 324.602 33.12C324.602 39.24 328.722 43.52 334.602 43.52ZM334.482 26.64C337.402 26.64 339.282 28.44 339.282 31.16H329.362C329.842 28.2 331.602 26.64 334.482 26.64ZM346.508 37C346.508 40.88 349.628 43.52 354.548 43.52C359.428 43.52 362.828 41.04 362.828 37.04C362.828 34 361.148 32.48 357.828 31.72L354.268 30.88C352.588 30.48 351.708 29.76 351.708 28.64C351.708 27.16 352.828 26.28 354.748 26.28C356.628 26.28 357.748 27.36 357.788 29.04H362.428C362.388 25.2 359.388 22.64 354.948 22.64C350.388 22.64 347.108 24.96 347.108 28.84C347.108 32 348.828 33.68 352.388 34.48L355.948 35.32C357.708 35.72 358.228 36.44 358.228 37.44C358.228 38.88 356.988 39.8 354.708 39.8C352.468 39.8 351.188 38.72 351.148 37H346.508ZM368.983 19.28C370.583 19.28 371.903 17.96 371.903 16.32C371.903 14.68 370.583 13.4 368.983 13.4C367.303 13.4 365.983 14.68 365.983 16.32C365.983 17.96 367.303 19.28 368.983 19.28ZM366.543 43H371.423V23.24H366.543V43ZM375.345 32.68C375.345 38.4 379.025 42.6 384.625 42.6C387.465 42.6 389.905 41.44 391.145 39.6V42.88C391.145 46.16 388.985 48.28 385.625 48.28C382.625 48.28 380.665 46.76 380.345 44.2H375.465C376.065 49.48 379.945 52.72 385.625 52.72C392.025 52.72 395.985 48.6 395.985 42V23.24H391.465L391.185 25.96C390.025 23.84 387.705 22.6 384.745 22.6C379.105 22.6 375.345 26.92 375.345 32.68ZM380.265 32.56C380.265 29.32 382.345 26.88 385.585 26.88C388.985 26.88 391.025 29.2 391.025 32.56C391.025 36 388.945 38.36 385.585 38.36C382.385 38.36 380.265 35.88 380.265 32.56ZM405.916 43V32.36C405.916 29.16 407.756 27.08 410.756 27.08C413.276 27.08 414.916 28.68 414.916 32V43H419.796V30.84C419.796 25.72 417.236 22.64 412.276 22.64C409.596 22.64 407.196 23.8 405.956 25.8L405.556 23.24H401.036V43H405.916ZM422.836 37C422.836 40.88 425.956 43.52 430.876 43.52C435.756 43.52 439.156 41.04 439.156 37.04C439.156 34 437.476 32.48 434.156 31.72L430.596 30.88C428.916 30.48 428.036 29.76 428.036 28.64C428.036 27.16 429.156 26.28 431.076 26.28C432.956 26.28 434.076 27.36 434.116 29.04H438.756C438.716 25.2 435.716 22.64 431.276 22.64C426.716 22.64 423.436 24.96 423.436 28.84C423.436 32 425.156 33.68 428.716 34.48L432.276 35.32C434.036 35.72 434.556 36.44 434.556 37.44C434.556 38.88 433.316 39.8 431.036 39.8C428.796 39.8 427.516 38.72 427.476 37H422.836Z" fill="#F9FAFB"/>
<rect x="1.5" y="1.5" width="52" height="52" fill="#171717"/>
<path d="M18.544 19.884H25.392V39.5H29.488V19.884H36.336V16.108H18.544V19.884Z" fill="#FAFAFA"/>
<rect x="1.5" y="1.5" width="52" height="52" stroke="#FAFAFA" stroke-width="3"/>
<circle cx="39" cy="38" r="1" fill="#FAFAFA" stroke="#FAFAFA" stroke-width="2"/>
</svg>
