<svg width="275" height="50" viewBox="0 0 275 50" fill="none" xmlns="http://www.w3.org/2000/svg">
<path d="M44.0748 19.1253H49.4127V34.4155H52.6054V19.1253H57.9433V16.182H44.0748V19.1253ZM57.1167 28.2296C57.1167 32.0709 59.8854 34.7148 63.7015 34.7148C67.5178 34.7148 70.2865 32.0709 70.2865 28.2296C70.2865 24.3883 67.5178 21.7443 63.7015 21.7443C59.8854 21.7443 57.1167 24.3883 57.1167 28.2296ZM60.1598 28.2296C60.1598 25.9847 61.6065 24.4632 63.7015 24.4632C65.7967 24.4632 67.2434 25.9847 67.2434 28.2296C67.2434 30.4745 65.7967 31.996 63.7015 31.996C61.6065 31.996 60.1598 30.4745 60.1598 28.2296ZM75.7422 34.4155V27.7806C75.7422 25.7851 76.8896 24.4881 78.7604 24.4881C80.3318 24.4881 81.3545 25.4858 81.3545 27.5561V34.4155H84.3976V26.8328C84.3976 23.64 82.8012 21.7194 79.7082 21.7194C78.037 21.7194 76.5404 22.4427 75.7672 23.6899L75.5177 22.0935H72.6992V34.4155H75.7422ZM86.0713 40.1275C86.7447 40.3022 87.493 40.4019 88.3411 40.4019C90.3615 40.4019 91.6586 39.4541 92.5815 37.1593L98.6177 22.0935H95.4749L92.1325 31.0731L88.9647 22.0935H85.747L90.7107 34.9393L90.3615 35.8622C89.8377 37.309 89.0894 37.5833 87.8921 37.5833H86.0713V40.1275ZM104.504 18.2772C104.504 16.7806 103.656 15.8328 102.484 15.8328C101.386 15.8328 100.638 16.606 100.638 17.7035C100.638 18.801 101.362 19.4246 102.259 19.4246C102.534 19.4246 102.758 19.3747 102.958 19.2999C102.958 20.1729 102.185 20.8464 101.112 21.0459V22.2432C103.108 21.9938 104.504 20.3724 104.504 18.2772ZM105.366 30.674C105.366 33.0935 107.312 34.7398 110.38 34.7398C113.423 34.7398 115.543 33.1933 115.543 30.699C115.543 28.8033 114.495 27.8554 112.425 27.3815L110.205 26.8577C109.158 26.6083 108.609 26.1593 108.609 25.4609C108.609 24.538 109.307 23.9892 110.504 23.9892C111.677 23.9892 112.375 24.6627 112.4 25.7103H115.294C115.269 23.3158 113.398 21.7194 110.629 21.7194C107.786 21.7194 105.74 23.1661 105.74 25.5856C105.74 27.5561 106.813 28.6037 109.033 29.1026L111.253 29.6264C112.35 29.8758 112.675 30.3248 112.675 30.9484C112.675 31.8464 111.901 32.4201 110.48 32.4201C109.083 32.4201 108.285 31.7466 108.26 30.674H105.366ZM128.823 34.4155H131.966L135.932 21.1457L139.823 34.4155H142.916L148.454 16.182H145.211L142.268 25.835C141.994 26.7579 141.744 27.7307 141.395 29.4269C141.096 27.8804 140.821 26.8328 140.522 25.8101L137.703 16.182H134.186L131.318 25.8101C130.994 26.8577 130.719 27.8056 130.42 29.4269C130.145 27.8305 129.871 26.8078 129.597 25.8101L126.703 16.182H123.386L128.823 34.4155ZM154.137 34.7398C157.355 34.7398 159.6 33.1185 160.124 30.4246H157.305C156.956 31.5969 155.858 32.2455 154.187 32.2455C152.167 32.2455 151.019 31.148 150.795 28.9779L160.074 28.9529V28.03C160.074 24.1888 157.729 21.7194 154.037 21.7194C150.421 21.7194 147.901 24.3883 147.901 28.2545C147.901 32.0709 150.471 34.7398 154.137 34.7398ZM154.062 24.2137C155.883 24.2137 157.056 25.3362 157.056 27.0323H150.87C151.169 25.1865 152.266 24.2137 154.062 24.2137ZM165.328 34.4155L165.528 32.4949C166.251 33.9167 167.822 34.7398 169.668 34.7398C173.21 34.7398 175.53 32.1207 175.53 28.3294C175.53 24.4382 173.385 21.6944 169.868 21.6944C167.997 21.6944 166.351 22.5176 165.552 23.8895V15.8577H162.509V34.4155H165.328ZM165.577 28.2046C165.577 25.9847 166.949 24.4382 169.045 24.4382C171.19 24.4382 172.462 26.0096 172.462 28.2046C172.462 30.3997 171.19 31.9461 169.045 31.9461C166.949 31.9461 165.577 30.4246 165.577 28.2046ZM191.685 34.4155C196.973 34.4155 200.615 30.699 200.615 25.3362C200.615 19.8985 196.898 16.182 191.51 16.182H185.125V34.4155H191.685ZM191.211 19.1253C194.977 19.1253 197.247 21.47 197.247 25.3362C197.247 29.1275 195.027 31.4722 191.386 31.4722H188.318V19.1253H191.211ZM208.652 34.7398C211.87 34.7398 214.115 33.1185 214.638 30.4246H211.82C211.471 31.5969 210.373 32.2455 208.702 32.2455C206.682 32.2455 205.534 31.148 205.31 28.9779L214.589 28.9529V28.03C214.589 24.1888 212.244 21.7194 208.552 21.7194C204.935 21.7194 202.416 24.3883 202.416 28.2545C202.416 32.0709 204.985 34.7398 208.652 34.7398ZM208.577 24.2137C210.398 24.2137 211.57 25.3362 211.57 27.0323H205.384C205.684 25.1865 206.781 24.2137 208.577 24.2137ZM216.076 30.674C216.076 33.0935 218.022 34.7398 221.09 34.7398C224.133 34.7398 226.253 33.1933 226.253 30.699C226.253 28.8033 225.206 27.8554 223.135 27.3815L220.915 26.8577C219.868 26.6083 219.319 26.1593 219.319 25.4609C219.319 24.538 220.017 23.9892 221.215 23.9892C222.387 23.9892 223.085 24.6627 223.11 25.7103H226.004C225.979 23.3158 224.108 21.7194 221.339 21.7194C218.496 21.7194 216.451 23.1661 216.451 25.5856C216.451 27.5561 217.523 28.6037 219.743 29.1026L221.963 29.6264C223.061 29.8758 223.385 30.3248 223.385 30.9484C223.385 31.8464 222.612 32.4201 221.19 32.4201C219.793 32.4201 218.995 31.7466 218.97 30.674H216.076ZM230.091 19.6241C231.089 19.6241 231.912 18.801 231.912 17.7783C231.912 16.7557 231.089 15.9575 230.091 15.9575C229.044 15.9575 228.221 16.7557 228.221 17.7783C228.221 18.801 229.044 19.6241 230.091 19.6241ZM228.57 34.4155H231.613V22.0935H228.57V34.4155ZM234.059 27.9802C234.059 31.547 236.353 34.1661 239.846 34.1661C241.617 34.1661 243.138 33.4427 243.911 32.2953V34.3407C243.911 36.3861 242.564 37.708 240.469 37.708C238.598 37.708 237.376 36.7602 237.177 35.1638H234.134C234.508 38.4563 236.927 40.4768 240.469 40.4768C244.46 40.4768 246.929 37.9076 246.929 33.7919V22.0935H244.111L243.936 23.7897C243.213 22.4677 241.766 21.6944 239.92 21.6944C236.403 21.6944 234.059 24.3883 234.059 27.9802ZM237.127 27.9053C237.127 25.8849 238.424 24.3634 240.444 24.3634C242.564 24.3634 243.836 25.8101 243.836 27.9053C243.836 30.0505 242.539 31.5221 240.444 31.5221C238.449 31.5221 237.127 29.9756 237.127 27.9053ZM253.122 34.4155V27.7806C253.122 25.7851 254.27 24.4881 256.14 24.4881C257.712 24.4881 258.734 25.4858 258.734 27.5561V34.4155H261.778V26.8328C261.778 23.64 260.181 21.7194 257.088 21.7194C255.417 21.7194 253.92 22.4427 253.147 23.6899L252.898 22.0935H250.079V34.4155H253.122ZM263.673 30.674C263.673 33.0935 265.619 34.7398 268.687 34.7398C271.73 34.7398 273.85 33.1933 273.85 30.699C273.85 28.8033 272.803 27.8554 270.732 27.3815L268.512 26.8577C267.465 26.6083 266.916 26.1593 266.916 25.4609C266.916 24.538 267.614 23.9892 268.812 23.9892C269.984 23.9892 270.682 24.6627 270.707 25.7103H273.601C273.576 23.3158 271.705 21.7194 268.936 21.7194C266.093 21.7194 264.047 23.1661 264.047 25.5856C264.047 27.5561 265.12 28.6037 267.34 29.1026L269.56 29.6264C270.657 29.8758 270.982 30.3248 270.982 30.9484C270.982 31.8464 270.208 32.4201 268.787 32.4201C267.39 32.4201 266.592 31.7466 266.567 30.674H263.673Z" fill="black"/>
<path d="M33.3617 8.53687H0.935364V40.9632H33.3617V8.53687Z" fill="white"/>
<path d="M11.5637 20.0008H15.834V32.233H18.3882V20.0008H22.6585V17.6461H11.5637V20.0008Z" fill="black"/>
<path d="M33.3617 8.53687H0.935364V40.9632H33.3617V8.53687Z" stroke="black" stroke-width="1.87075"/>
<path d="M24.3197 31.9212C24.6641 31.9212 24.9433 31.6421 24.9433 31.2977C24.9433 30.9533 24.6641 30.6741 24.3197 30.6741C23.9754 30.6741 23.6962 30.9533 23.6962 31.2977C23.6962 31.6421 23.9754 31.9212 24.3197 31.9212Z" stroke="black" stroke-width="1.24717"/>
</svg>
