<svg width="26" height="26" viewBox="0 0 15 15" fill="none" xmlns="http://www.w3.org/2000/svg">
<path fill-rule="evenodd" clip-rule="evenodd" d="M7 14.5C10.866 14.5 14 11.366 14 7.5C14 3.63401 10.866 0.5 7 0.5C3.13401 0.5 0 3.63401 0 7.5C0 11.366 3.13401 14.5 7 14.5ZM5.86872 5.13128C5.52701 4.78957 4.97299 4.78957 4.63128 5.13128C4.28957 5.47299 4.28957 6.02701 4.63128 6.36872L5.76256 7.5L4.63128 8.63128C4.28957 8.97299 4.28957 9.52701 4.63128 9.86872C4.97299 10.2104 5.52701 10.2104 5.86872 9.86872L7 8.73744L8.13128 9.86872C8.47299 10.2104 9.02701 10.2104 9.36872 9.86872C9.71043 9.52701 9.71043 8.97299 9.36872 8.63128L8.23744 7.5L9.36872 6.36872C9.71043 6.02701 9.71043 5.47299 9.36872 5.13128C9.02701 4.78957 8.47299 4.78957 8.13128 5.13128L7 6.26256L5.86872 5.13128Z" fill="#D4D4D4"/>
</svg>
