<svg width="24" height="24" viewBox="0 0 24 24" fill="none" xmlns="http://www.w3.org/2000/svg">
<path d="M20.3175 4.49315C18.7613 3.79043 17.1192 3.28889 15.4321 3.00103C15.4168 2.99849 15.4011 3.00068 15.3871 3.00729C15.3732 3.01389 15.3616 3.0246 15.3541 3.03792C15.1426 3.4069 14.9086 3.88951 14.7451 4.26734C12.9265 3.99579 11.0767 3.99579 9.25816 4.26734C9.07578 3.84645 8.86945 3.43599 8.64016 3.03792C8.63247 3.02474 8.6209 3.01416 8.60698 3.00758C8.59305 3.00099 8.57743 2.99871 8.56216 3.00103C6.87468 3.28735 5.2322 3.78915 3.67671 4.49315C3.6634 4.49815 3.65227 4.50754 3.64522 4.51972C0.534248 9.09351 -0.319243 13.5551 0.0992523 17.9607C0.100752 17.9813 0.114252 18.002 0.130752 18.0153C1.94232 19.3356 3.9686 20.3437 6.12319 20.9966C6.1384 21.0013 6.15475 21.0011 6.16985 20.9961C6.18496 20.991 6.19804 20.9814 6.20719 20.9685C6.66918 20.3487 7.08018 19.6948 7.43417 19.0071C7.44155 18.9929 7.44408 18.9768 7.44138 18.9611C7.43867 18.9454 7.43089 18.931 7.41918 18.92C7.41142 18.9128 7.40223 18.9073 7.39218 18.9038C6.74592 18.6594 6.12003 18.3658 5.5202 18.0256C5.50344 18.0163 5.49098 18.0009 5.4854 17.9828C5.47981 17.9647 5.48153 17.9451 5.4902 17.9282C5.4953 17.9172 5.50302 17.9076 5.5127 17.9002C5.63869 17.8072 5.76469 17.7098 5.88469 17.6124C5.89529 17.604 5.90801 17.5986 5.92149 17.5968C5.93496 17.5949 5.94869 17.5968 5.96119 17.602C9.88965 19.3672 14.1421 19.3672 18.0226 17.602C18.0355 17.5965 18.0498 17.5946 18.0638 17.5964C18.0778 17.5982 18.091 17.6037 18.1021 17.6124C18.2221 17.7098 18.3481 17.8072 18.4741 17.9002C18.4843 17.9075 18.4925 17.9172 18.4979 17.9284C18.5034 17.9397 18.5059 17.952 18.5053 17.9645C18.5047 17.9769 18.501 17.989 18.4945 17.9997C18.488 18.0103 18.4789 18.0192 18.4681 18.0256C17.8696 18.3689 17.2429 18.6621 16.5946 18.9023C16.5842 18.906 16.5748 18.9118 16.5671 18.9195C16.5593 18.9271 16.5533 18.9364 16.5496 18.9466C16.5461 18.9564 16.5447 18.9669 16.5455 18.9773C16.5463 18.9877 16.5492 18.9978 16.5541 19.0071C16.9141 19.6934 17.3266 20.3487 17.7796 20.9685C17.7887 20.9814 17.8018 20.991 17.8169 20.9961C17.832 21.0011 17.8484 21.0013 17.8636 20.9966C20.0218 20.3458 22.0513 19.3375 23.865 18.0153C23.8741 18.0091 23.8816 18.001 23.8871 17.9915C23.8925 17.9821 23.8958 17.9715 23.8965 17.9607C24.3975 12.8674 23.058 8.44264 20.3475 4.52119C20.3448 4.51472 20.3407 4.50888 20.3356 4.50405C20.3304 4.49922 20.3243 4.4955 20.3175 4.49315V4.49315ZM8.02067 15.2775C6.83718 15.2775 5.86369 14.209 5.86369 12.8984C5.86369 11.5863 6.81918 10.5177 8.02067 10.5177C9.23116 10.5177 10.1956 11.5951 10.1776 12.8984C10.1776 14.209 9.22216 15.2775 8.02067 15.2775ZM15.9946 15.2775C14.8126 15.2775 13.8376 14.209 13.8376 12.8984C13.8376 11.5863 14.7931 10.5177 15.9946 10.5177C17.2051 10.5177 18.1711 11.5951 18.1516 12.8984C18.1516 14.209 17.2051 15.2775 15.9946 15.2775Z" fill="#A0AABF"/>
</svg>
