<svg width="24" height="24" viewBox="0 0 24 24" fill="none" xmlns="http://www.w3.org/2000/svg">
<path d="M15.1034 0.5C13.4115 0.5 11.7889 1.1141 10.5926 2.20721C9.39624 3.30031 8.72414 4.78288 8.72414 6.32877V9.57397H5.31034C5.13895 9.57397 5 9.70093 5 9.85753V14.1425C5 14.2991 5.13895 14.426 5.31034 14.426H8.72414V23.2164C8.72414 23.373 8.86308 23.5 9.03448 23.5H13.7241C13.8955 23.5 14.0345 23.373 14.0345 23.2164V14.426H17.4785C17.6209 14.426 17.7451 14.3375 17.7796 14.2112L18.952 9.92631C19.001 9.74734 18.8528 9.57397 18.6509 9.57397H14.0345V6.32877C14.0345 6.06973 14.1471 5.8213 14.3476 5.63813C14.548 5.45496 14.8199 5.35205 15.1034 5.35205H18.6897C18.8611 5.35205 19 5.2251 19 5.06849V0.783562C19 0.626955 18.8611 0.5 18.6897 0.5H15.1034Z" fill="#A0AABF"/>
</svg>
