<svg width="24" height="24" viewBox="0 0 24 24" fill="none" xmlns="http://www.w3.org/2000/svg">
<path d="M12 7.76435C9.65676 7.76435 7.75721 9.66072 7.75721 12C7.75721 14.3393 9.65676 16.2356 12 16.2356C14.3432 16.2356 16.2428 14.3393 16.2428 12C16.2428 9.66072 14.3432 7.76435 12 7.76435Z" fill="#A0AABF"/>
<path fill-rule="evenodd" clip-rule="evenodd" d="M5.17177 0.376691C9.67319 -0.125564 14.3268 -0.125564 18.8282 0.376691C21.3065 0.653212 23.3055 2.60262 23.5963 5.08543C24.1346 9.67949 24.1346 14.3205 23.5963 18.9146C23.3055 21.3974 21.3065 23.3468 18.8282 23.6233C14.3268 24.1256 9.67319 24.1256 5.17177 23.6233C2.69347 23.3468 0.694542 21.3974 0.403666 18.9146C-0.134555 14.3205 -0.134555 9.67949 0.403666 5.08543C0.694542 2.60262 2.69347 0.653212 5.17177 0.376691ZM18.5273 4.18034C17.8063 4.18034 17.2219 4.76384 17.2219 5.48362C17.2219 6.2034 17.8063 6.7869 18.5273 6.7869C19.2483 6.7869 19.8328 6.2034 19.8328 5.48362C19.8328 4.76384 19.2483 4.18034 18.5273 4.18034ZM5.799 12C5.799 8.58105 8.57528 5.80944 12 5.80944C15.4247 5.80944 18.201 8.58105 18.201 12C18.201 15.419 15.4247 18.1906 12 18.1906C8.57528 18.1906 5.799 15.419 5.799 12Z" fill="#A0AABF"/>
</svg>
