<svg width="24" height="24" viewBox="0 0 24 24" fill="none" xmlns="http://www.w3.org/2000/svg">
<path d="M3.49333 0C2.1163 0 1 1.18615 1 2.64935C1 4.11255 2.1163 5.2987 3.49333 5.2987C4.87036 5.2987 5.98667 4.11255 5.98667 2.64935C5.98667 1.18615 4.87036 0 3.49333 0Z" fill="#A0AABF"/>
<path d="M1.14667 7.48052C1.06566 7.48052 1 7.55029 1 7.63636V23.8442C1 23.9302 1.06566 24 1.14667 24H5.84C5.921 24 5.98667 23.9302 5.98667 23.8442V7.63636C5.98667 7.55029 5.921 7.48052 5.84 7.48052H1.14667Z" fill="#A0AABF"/>
<path d="M8.77333 7.48052C8.69233 7.48052 8.62667 7.55029 8.62667 7.63636V23.8442C8.62667 23.9302 8.69233 24 8.77333 24H13.4667C13.5477 24 13.6133 23.9302 13.6133 23.8442V15.1169C13.6133 14.4969 13.8451 13.9023 14.2577 13.4639C14.6703 13.0255 15.2299 12.7792 15.8133 12.7792C16.3968 12.7792 16.9564 13.0255 17.369 13.4639C17.7815 13.9023 18.0133 14.4969 18.0133 15.1169V23.8442C18.0133 23.9302 18.079 24 18.16 24H22.8533C22.9343 24 23 23.9302 23 23.8442V13.0975C23 10.0719 20.5235 7.70493 17.6905 7.9786C16.8168 8.063 15.9529 8.29379 15.1463 8.66113L13.6133 9.3592V7.63636C13.6133 7.55029 13.5477 7.48052 13.4667 7.48052H8.77333Z" fill="#A0AABF"/>
</svg>
