<svg width="26" height="24" viewBox="0 0 26 24" fill="none" xmlns="http://www.w3.org/2000/svg">
<path fill-rule="evenodd" clip-rule="evenodd" d="M6.80692 2.75453C10.9293 2.41516 15.0707 2.41516 19.1931 2.75453L21.9623 2.9825C23.5047 3.10948 24.7666 4.32591 25.0215 5.93166C25.6595 9.94937 25.6595 14.0506 25.0215 18.0683C24.7666 19.6741 23.5047 20.8905 21.9623 21.0175L19.1931 21.2455C15.0707 21.5848 10.9293 21.5848 6.80692 21.2455L4.03773 21.0175C2.49528 20.8905 1.23344 19.6741 0.97847 18.0683C0.34051 14.0506 0.34051 9.94937 0.97847 5.93166C1.23344 4.32591 2.49528 3.10948 4.03773 2.9825L6.80692 2.75453ZM10.5282 15.2123V8.78772C10.5282 8.48448 10.8426 8.29717 11.0898 8.45319L16.1777 11.6655C16.4177 11.817 16.4177 12.183 16.1777 12.3345L11.0898 15.5468C10.8426 15.7028 10.5282 15.5155 10.5282 15.2123Z" fill="#A0AABF"/>
</svg>
