<svg width="165" height="21" viewBox="0 0 165 21" fill="none" xmlns="http://www.w3.org/2000/svg">
<path d="M0.16 16V2H7C8.76 2 10.08 2.33333 10.96 3C11.8533 3.66667 12.3 4.54667 12.3 5.64C12.3 6.37333 12.12 7.01333 11.76 7.56C11.4 8.09333 10.9067 8.50667 10.28 8.8C9.65333 9.09333 8.93333 9.24 8.12 9.24L8.5 8.42C9.38 8.42 10.16 8.56667 10.84 8.86C11.52 9.14 12.0467 9.56 12.42 10.12C12.8067 10.68 13 11.3667 13 12.18C13 13.38 12.5267 14.32 11.58 15C10.6333 15.6667 9.24 16 7.4 16H0.16ZM3.38 13.56H7.16C8 13.56 8.63333 13.4267 9.06 13.16C9.5 12.88 9.72 12.44 9.72 11.84C9.72 11.2533 9.5 10.82 9.06 10.54C8.63333 10.2467 8 10.1 7.16 10.1H3.14V7.74H6.6C7.38667 7.74 7.98667 7.60667 8.4 7.34C8.82667 7.06 9.04 6.64 9.04 6.08C9.04 5.53333 8.82667 5.12667 8.4 4.86C7.98667 4.58 7.38667 4.44 6.6 4.44H3.38V13.56ZM15.233 16V5.24H18.213V8.28L17.793 7.4C18.113 6.64 18.6263 6.06667 19.333 5.68C20.0396 5.28 20.8996 5.08 21.913 5.08V7.96C21.7796 7.94667 21.6596 7.94 21.553 7.94C21.4463 7.92667 21.333 7.92 21.213 7.92C20.3596 7.92 19.6663 8.16667 19.133 8.66C18.613 9.14 18.353 9.89333 18.353 10.92V16H15.233ZM23.7877 16V5.24H26.9077V16H23.7877ZM25.3477 3.74C24.7743 3.74 24.3077 3.57333 23.9477 3.24C23.5877 2.90667 23.4077 2.49333 23.4077 2C23.4077 1.50667 23.5877 1.09333 23.9477 0.76C24.3077 0.426666 24.7743 0.259999 25.3477 0.259999C25.921 0.259999 26.3877 0.419999 26.7477 0.74C27.1077 1.04667 27.2877 1.44667 27.2877 1.94C27.2877 2.46 27.1077 2.89333 26.7477 3.24C26.401 3.57333 25.9343 3.74 25.3477 3.74ZM34.8633 20.04C33.8499 20.04 32.8699 19.9133 31.9233 19.66C30.9899 19.42 30.2099 19.0533 29.5833 18.56L30.8233 16.32C31.2766 16.6933 31.8499 16.9867 32.5433 17.2C33.2499 17.4267 33.9433 17.54 34.6233 17.54C35.7299 17.54 36.5299 17.2933 37.0233 16.8C37.5299 16.3067 37.7833 15.5733 37.7833 14.6V12.98L37.9833 10.28L37.9433 7.56V5.24H40.9033V14.2C40.9033 16.2 40.3833 17.6733 39.3433 18.62C38.3033 19.5667 36.8099 20.04 34.8633 20.04ZM34.3833 15.48C33.3833 15.48 32.4766 15.2667 31.6633 14.84C30.8633 14.4 30.2166 13.7933 29.7233 13.02C29.2433 12.2333 29.0033 11.32 29.0033 10.28C29.0033 9.22667 29.2433 8.31333 29.7233 7.54C30.2166 6.75333 30.8633 6.14667 31.6633 5.72C32.4766 5.29333 33.3833 5.08 34.3833 5.08C35.2899 5.08 36.0899 5.26667 36.7833 5.64C37.4766 6 38.0166 6.56667 38.4033 7.34C38.7899 8.1 38.9833 9.08 38.9833 10.28C38.9833 11.4667 38.7899 12.4467 38.4033 13.22C38.0166 13.98 37.4766 14.5467 36.7833 14.92C36.0899 15.2933 35.2899 15.48 34.3833 15.48ZM35.0033 12.92C35.5499 12.92 36.0366 12.8133 36.4633 12.6C36.8899 12.3733 37.2233 12.06 37.4633 11.66C37.7033 11.26 37.8233 10.8 37.8233 10.28C37.8233 9.74667 37.7033 9.28667 37.4633 8.9C37.2233 8.5 36.8899 8.19333 36.4633 7.98C36.0366 7.75333 35.5499 7.64 35.0033 7.64C34.4566 7.64 33.9699 7.75333 33.5433 7.98C33.1166 8.19333 32.7766 8.5 32.5233 8.9C32.2833 9.28667 32.1633 9.74667 32.1633 10.28C32.1633 10.8 32.2833 11.26 32.5233 11.66C32.7766 12.06 33.1166 12.3733 33.5433 12.6C33.9699 12.8133 34.4566 12.92 35.0033 12.92ZM50.3472 5.08C51.2005 5.08 51.9605 5.25333 52.6272 5.6C53.3072 5.93333 53.8405 6.45333 54.2272 7.16C54.6139 7.85333 54.8072 8.74667 54.8072 9.84V16H51.6872V10.32C51.6872 9.45333 51.4939 8.81333 51.1072 8.4C50.7339 7.98667 50.2005 7.78 49.5072 7.78C49.0139 7.78 48.5672 7.88667 48.1672 8.1C47.7805 8.3 47.4739 8.61333 47.2472 9.04C47.0339 9.46667 46.9272 10.0133 46.9272 10.68V16H43.8072V1.16H46.9272V8.22L46.2272 7.32C46.6139 6.6 47.1672 6.04667 47.8872 5.66C48.6072 5.27333 49.4272 5.08 50.3472 5.08ZM62.0353 16.16C60.7686 16.16 59.782 15.84 59.0753 15.2C58.3686 14.5467 58.0153 13.58 58.0153 12.3V2.86H61.1353V12.26C61.1353 12.7133 61.2553 13.0667 61.4953 13.32C61.7353 13.56 62.062 13.68 62.4753 13.68C62.9686 13.68 63.3886 13.5467 63.7353 13.28L64.5753 15.48C64.2553 15.7067 63.8686 15.88 63.4153 16C62.9753 16.1067 62.5153 16.16 62.0353 16.16ZM56.3553 7.88V5.48H63.8153V7.88H56.3553ZM66.5467 16V2H73.3867C75.1467 2 76.4667 2.33333 77.3467 3C78.2401 3.66667 78.6867 4.54667 78.6867 5.64C78.6867 6.37333 78.5067 7.01333 78.1467 7.56C77.7867 8.09333 77.2934 8.50667 76.6667 8.8C76.0401 9.09333 75.3201 9.24 74.5067 9.24L74.8867 8.42C75.7667 8.42 76.5467 8.56667 77.2267 8.86C77.9067 9.14 78.4334 9.56 78.8067 10.12C79.1934 10.68 79.3867 11.3667 79.3867 12.18C79.3867 13.38 78.9134 14.32 77.9667 15C77.0201 15.6667 75.6267 16 73.7867 16H66.5467ZM69.7667 13.56H73.5467C74.3867 13.56 75.0201 13.4267 75.4467 13.16C75.8867 12.88 76.1067 12.44 76.1067 11.84C76.1067 11.2533 75.8867 10.82 75.4467 10.54C75.0201 10.2467 74.3867 10.1 73.5467 10.1H69.5267V7.74H72.9867C73.7734 7.74 74.3734 7.60667 74.7867 7.34C75.2134 7.06 75.4267 6.64 75.4267 6.08C75.4267 5.53333 75.2134 5.12667 74.7867 4.86C74.3734 4.58 73.7734 4.44 72.9867 4.44H69.7667V13.56ZM86.9597 16.16C85.733 16.16 84.653 15.92 83.7197 15.44C82.7997 14.96 82.0864 14.3067 81.5797 13.48C81.073 12.64 80.8197 11.6867 80.8197 10.62C80.8197 9.54 81.0664 8.58667 81.5597 7.76C82.0664 6.92 82.753 6.26667 83.6197 5.8C84.4864 5.32 85.4664 5.08 86.5597 5.08C87.613 5.08 88.5597 5.30667 89.3997 5.76C90.253 6.2 90.9264 6.84 91.4197 7.68C91.913 8.50667 92.1597 9.5 92.1597 10.66C92.1597 10.78 92.153 10.92 92.1397 11.08C92.1264 11.2267 92.113 11.3667 92.0997 11.5H83.3597V9.68H90.4597L89.2597 10.22C89.2597 9.66 89.1464 9.17333 88.9197 8.76C88.693 8.34667 88.3797 8.02667 87.9797 7.8C87.5797 7.56 87.113 7.44 86.5797 7.44C86.0464 7.44 85.573 7.56 85.1597 7.8C84.7597 8.02667 84.4464 8.35333 84.2197 8.78C83.993 9.19333 83.8797 9.68667 83.8797 10.26V10.74C83.8797 11.3267 84.0064 11.8467 84.2597 12.3C84.5264 12.74 84.893 13.08 85.3597 13.32C85.8397 13.5467 86.3997 13.66 87.0397 13.66C87.613 13.66 88.113 13.5733 88.5397 13.4C88.9797 13.2267 89.3797 12.9667 89.7397 12.62L91.3997 14.42C90.9064 14.98 90.2864 15.4133 89.5397 15.72C88.793 16.0133 87.933 16.16 86.9597 16.16ZM100.544 16V13.9L100.344 13.44V9.68C100.344 9.01333 100.137 8.49333 99.7239 8.12C99.3239 7.74667 98.7039 7.56 97.8639 7.56C97.2906 7.56 96.7239 7.65333 96.1639 7.84C95.6172 8.01333 95.1506 8.25333 94.7639 8.56L93.6439 6.38C94.2306 5.96667 94.9372 5.64667 95.7639 5.42C96.5906 5.19333 97.4306 5.08 98.2839 5.08C99.9239 5.08 101.197 5.46667 102.104 6.24C103.011 7.01333 103.464 8.22 103.464 9.86V16H100.544ZM97.2639 16.16C96.4239 16.16 95.7039 16.02 95.1039 15.74C94.5039 15.4467 94.0439 15.0533 93.7239 14.56C93.4039 14.0667 93.2439 13.5133 93.2439 12.9C93.2439 12.26 93.3972 11.7 93.7039 11.22C94.0239 10.74 94.5239 10.3667 95.2039 10.1C95.8839 9.82 96.7706 9.68 97.8639 9.68H100.724V11.5H98.2039C97.4706 11.5 96.9639 11.62 96.6839 11.86C96.4172 12.1 96.2839 12.4 96.2839 12.76C96.2839 13.16 96.4372 13.48 96.7439 13.72C97.0639 13.9467 97.4972 14.06 98.0439 14.06C98.5639 14.06 99.0306 13.94 99.4439 13.7C99.8572 13.4467 100.157 13.08 100.344 12.6L100.824 14.04C100.597 14.7333 100.184 15.26 99.5839 15.62C98.9839 15.98 98.2106 16.16 97.2639 16.16ZM106.288 16V5.24H109.268V8.28L108.848 7.4C109.168 6.64 109.681 6.06667 110.388 5.68C111.094 5.28 111.954 5.08 112.968 5.08V7.96C112.834 7.94667 112.714 7.94 112.608 7.94C112.501 7.92667 112.388 7.92 112.268 7.92C111.414 7.92 110.721 8.16667 110.188 8.66C109.668 9.14 109.408 9.89333 109.408 10.92V16H106.288ZM118.521 16.16C117.601 16.16 116.714 16.0533 115.861 15.84C115.021 15.6133 114.354 15.3333 113.861 15L114.901 12.76C115.394 13.0667 115.974 13.32 116.641 13.52C117.321 13.7067 117.988 13.8 118.641 13.8C119.361 13.8 119.868 13.7133 120.161 13.54C120.468 13.3667 120.621 13.1267 120.621 12.82C120.621 12.5667 120.501 12.38 120.261 12.26C120.034 12.1267 119.728 12.0267 119.341 11.96C118.954 11.8933 118.528 11.8267 118.061 11.76C117.608 11.6933 117.148 11.6067 116.681 11.5C116.214 11.38 115.788 11.2067 115.401 10.98C115.014 10.7533 114.701 10.4467 114.461 10.06C114.234 9.67333 114.121 9.17333 114.121 8.56C114.121 7.88 114.314 7.28 114.701 6.76C115.101 6.24 115.674 5.83333 116.421 5.54C117.168 5.23333 118.061 5.08 119.101 5.08C119.834 5.08 120.581 5.16 121.341 5.32C122.101 5.48 122.734 5.71333 123.241 6.02L122.201 8.24C121.681 7.93333 121.154 7.72667 120.621 7.62C120.101 7.5 119.594 7.44 119.101 7.44C118.408 7.44 117.901 7.53333 117.581 7.72C117.261 7.90667 117.101 8.14667 117.101 8.44C117.101 8.70667 117.214 8.90667 117.441 9.04C117.681 9.17333 117.994 9.28 118.381 9.36C118.768 9.44 119.188 9.51333 119.641 9.58C120.108 9.63333 120.574 9.72 121.041 9.84C121.508 9.96 121.928 10.1333 122.301 10.36C122.688 10.5733 123.001 10.8733 123.241 11.26C123.481 11.6333 123.601 12.1267 123.601 12.74C123.601 13.4067 123.401 14 123.001 14.52C122.601 15.0267 122.021 15.4267 121.261 15.72C120.514 16.0133 119.601 16.16 118.521 16.16ZM125.746 16V2H128.986V16H125.746ZM138.628 5.08C139.482 5.08 140.242 5.25333 140.908 5.6C141.588 5.93333 142.122 6.45333 142.508 7.16C142.895 7.85333 143.088 8.74667 143.088 9.84V16H139.968V10.32C139.968 9.45333 139.775 8.81333 139.388 8.4C139.015 7.98667 138.482 7.78 137.788 7.78C137.295 7.78 136.848 7.88667 136.448 8.1C136.062 8.3 135.755 8.61333 135.528 9.04C135.315 9.46667 135.208 10.0133 135.208 10.68V16H132.088V5.24H135.068V8.22L134.508 7.32C134.895 6.6 135.448 6.04667 136.168 5.66C136.888 5.27333 137.708 5.08 138.628 5.08ZM146.297 16V5C146.297 3.78667 146.657 2.82 147.377 2.1C148.097 1.36667 149.123 0.999999 150.457 0.999999C150.91 0.999999 151.343 1.04667 151.757 1.14C152.183 1.23333 152.543 1.38 152.837 1.58L152.017 3.84C151.843 3.72 151.65 3.62667 151.437 3.56C151.223 3.49333 150.997 3.46 150.757 3.46C150.303 3.46 149.95 3.59333 149.697 3.86C149.457 4.11333 149.337 4.5 149.337 5.02V6.02L149.417 7.36V16H146.297ZM144.637 7.88V5.48H152.097V7.88H144.637ZM158.634 16.16C157.488 16.16 156.468 15.92 155.574 15.44C154.694 14.96 153.994 14.3067 153.474 13.48C152.968 12.64 152.714 11.6867 152.714 10.62C152.714 9.54 152.968 8.58667 153.474 7.76C153.994 6.92 154.694 6.26667 155.574 5.8C156.468 5.32 157.488 5.08 158.634 5.08C159.768 5.08 160.781 5.32 161.674 5.8C162.568 6.26667 163.268 6.91333 163.774 7.74C164.281 8.56667 164.534 9.52667 164.534 10.62C164.534 11.6867 164.281 12.64 163.774 13.48C163.268 14.3067 162.568 14.96 161.674 15.44C160.781 15.92 159.768 16.16 158.634 16.16ZM158.634 13.6C159.154 13.6 159.621 13.48 160.034 13.24C160.448 13 160.774 12.66 161.014 12.22C161.254 11.7667 161.374 11.2333 161.374 10.62C161.374 9.99333 161.254 9.46 161.014 9.02C160.774 8.58 160.448 8.24 160.034 8C159.621 7.76 159.154 7.64 158.634 7.64C158.114 7.64 157.648 7.76 157.234 8C156.821 8.24 156.488 8.58 156.234 9.02C155.994 9.46 155.874 9.99333 155.874 10.62C155.874 11.2333 155.994 11.7667 156.234 12.22C156.488 12.66 156.821 13 157.234 13.24C157.648 13.48 158.114 13.6 158.634 13.6Z" fill="black"/>
</svg>
