<svg width="170" height="25" viewBox="0 0 170 25" fill="none" xmlns="http://www.w3.org/2000/svg">
<path d="M12.2944 9.08984H11.5254C11.3818 8.5498 11.0811 7.97217 10.623 7.35693C10.1719 6.7417 9.73779 6.40332 9.3208 6.3418C9.10889 6.31445 8.85596 6.29395 8.56201 6.28027C8.2749 6.2666 7.94678 6.25977 7.57764 6.25977H5.13721V12.1045H6.80859C7.31445 12.1045 7.70752 12.0532 7.98779 11.9507C8.26807 11.8413 8.50732 11.6772 8.70557 11.4585C8.84229 11.3081 8.96533 11.0757 9.07471 10.7612C9.19092 10.4399 9.26611 10.0981 9.30029 9.73584H10.0796V15.4473H9.30029C9.27979 15.1465 9.20801 14.8047 9.08496 14.4219C8.96875 14.0391 8.84229 13.7622 8.70557 13.5913C8.50049 13.3384 8.24072 13.1675 7.92627 13.0786C7.61865 12.9829 7.24609 12.9351 6.80859 12.9351H5.13721V17.9492C5.13721 18.1748 5.18164 18.3765 5.27051 18.5542C5.35938 18.7319 5.5166 18.8755 5.74219 18.9849C5.84473 19.0327 6.06689 19.0908 6.40869 19.1592C6.75049 19.2275 7.01025 19.2651 7.18799 19.272V20H0.881836V19.272C1.08691 19.2583 1.36035 19.2378 1.70215 19.2104C2.04395 19.1763 2.26611 19.1353 2.36865 19.0874C2.57373 18.9985 2.7207 18.8687 2.80957 18.6978C2.90527 18.52 2.95312 18.3081 2.95312 18.062V7.56201C2.95312 7.33643 2.91553 7.13818 2.84033 6.96729C2.76514 6.78955 2.60791 6.646 2.36865 6.53662C2.18408 6.44775 1.93457 6.36914 1.62012 6.30078C1.3125 6.23242 1.06641 6.19141 0.881836 6.17773V5.44971H12.2944V9.08984ZM20.6518 11.1919C20.6518 11.5405 20.5663 11.8516 20.3954 12.125C20.2245 12.3916 19.9613 12.5249 19.6059 12.5249C19.2231 12.5249 18.9291 12.4258 18.724 12.2275C18.5258 12.0293 18.4267 11.8105 18.4267 11.5713C18.4267 11.4209 18.4369 11.2842 18.4574 11.1611C18.4848 11.0381 18.5087 10.915 18.5292 10.792C18.2079 10.792 17.832 10.9219 17.4013 11.1816C16.9706 11.4414 16.6049 11.8105 16.3041 12.2891V18.1748C16.3041 18.4141 16.3486 18.6089 16.4374 18.7593C16.5331 18.9097 16.6801 19.0225 16.8783 19.0977C17.0492 19.166 17.268 19.2173 17.5346 19.2515C17.808 19.2856 18.0439 19.3096 18.2421 19.3232V20H12.9101V19.3232C13.0673 19.3096 13.2279 19.2959 13.392 19.2822C13.5629 19.2686 13.7099 19.2412 13.8329 19.2002C14.0243 19.1387 14.1645 19.0327 14.2533 18.8823C14.349 18.7251 14.3969 18.5234 14.3969 18.2773V12.0327C14.3969 11.8208 14.3456 11.6123 14.2431 11.4072C14.1474 11.2021 14.0107 11.0381 13.8329 10.915C13.703 10.833 13.5492 10.7749 13.3715 10.7407C13.1938 10.6997 13.0024 10.6724 12.7973 10.6587V9.99219L16.1606 9.7666L16.3041 9.91016V11.3354H16.3554C16.7792 10.7817 17.2509 10.3613 17.7704 10.0742C18.29 9.78711 18.7651 9.64355 19.1957 9.64355C19.6264 9.64355 19.975 9.78369 20.2416 10.064C20.5151 10.3442 20.6518 10.7202 20.6518 11.1919ZM26.015 20H21.1239V19.3232C21.2811 19.3096 21.4417 19.2959 21.6058 19.2822C21.7767 19.2686 21.9237 19.2412 22.0467 19.2002C22.2381 19.1387 22.3783 19.0327 22.4671 18.8823C22.5628 18.7251 22.6107 18.5234 22.6107 18.2773V12.0327C22.6107 11.814 22.5594 11.6157 22.4569 11.438C22.3612 11.2534 22.2245 11.0996 22.0467 10.9766C21.9168 10.8945 21.7288 10.8262 21.4828 10.7715C21.2367 10.71 21.0111 10.6724 20.806 10.6587V9.99219L24.3744 9.7666L24.5179 9.91016V18.1543C24.5179 18.3936 24.5623 18.5918 24.6512 18.749C24.7469 18.9062 24.8939 19.0225 25.0921 19.0977C25.2425 19.1592 25.3895 19.2104 25.533 19.2515C25.6766 19.2856 25.8372 19.3096 26.015 19.3232V20ZM24.723 5.77783C24.723 6.16748 24.5931 6.50928 24.3333 6.80322C24.0804 7.09033 23.766 7.23389 23.39 7.23389C23.0413 7.23389 22.7371 7.09717 22.4774 6.82373C22.2245 6.54346 22.098 6.22559 22.098 5.87012C22.098 5.49414 22.2245 5.16602 22.4774 4.88574C22.7371 4.60547 23.0413 4.46533 23.39 4.46533C23.7796 4.46533 24.0975 4.59863 24.3436 4.86523C24.5965 5.125 24.723 5.4292 24.723 5.77783ZM35.8181 17.6211C35.3943 18.4277 34.8269 19.0703 34.116 19.5488C33.405 20.0273 32.5881 20.2666 31.6653 20.2666C30.8518 20.2666 30.1375 20.123 29.5222 19.8359C28.9138 19.5488 28.4114 19.1592 28.0149 18.667C27.6184 18.1748 27.3211 17.6006 27.1228 16.9443C26.9314 16.2881 26.8357 15.5942 26.8357 14.8628C26.8357 14.2065 26.9382 13.564 27.1433 12.9351C27.3552 12.2993 27.6629 11.7285 28.0662 11.2227C28.4558 10.7373 28.9378 10.3477 29.512 10.0537C30.093 9.75293 30.7424 9.60254 31.4602 9.60254C32.1985 9.60254 32.8308 9.71875 33.3572 9.95117C33.8836 10.1836 34.3108 10.5015 34.6389 10.9048C34.9534 11.2876 35.1858 11.7388 35.3362 12.2583C35.4934 12.7778 35.572 13.3418 35.572 13.9502V14.627H28.8762C28.8762 15.29 28.9378 15.8916 29.0608 16.4316C29.1907 16.9717 29.3923 17.4468 29.6658 17.8569C29.9324 18.2534 30.281 18.5679 30.7117 18.8003C31.1423 19.0259 31.655 19.1387 32.2498 19.1387C32.8582 19.1387 33.3811 18.9985 33.8186 18.7183C34.2629 18.4312 34.6902 17.9185 35.1004 17.1802L35.8181 17.6211ZM33.552 13.7656C33.552 13.3828 33.5178 12.9727 33.4495 12.5352C33.3879 12.0977 33.2854 11.7319 33.1419 11.438C32.9846 11.1235 32.7693 10.8672 32.4959 10.6689C32.2224 10.4707 31.8704 10.3716 31.4397 10.3716C30.7219 10.3716 30.1238 10.6724 29.6453 11.2739C29.1736 11.8687 28.9172 12.6992 28.8762 13.7656H33.552ZM47.7336 20H42.7809V19.3232C42.9382 19.3096 43.1091 19.2959 43.2936 19.2822C43.485 19.2686 43.6423 19.2412 43.7653 19.2002C43.9567 19.1387 44.0969 19.0327 44.1857 18.8823C44.2814 18.7251 44.3293 18.5234 44.3293 18.2773V13.0786C44.3293 12.3608 44.1584 11.8071 43.8166 11.4175C43.4816 11.0278 43.0715 10.833 42.5861 10.833C42.2238 10.833 41.8923 10.8911 41.5915 11.0073C41.2907 11.1167 41.0241 11.2534 40.7917 11.4175C40.5661 11.5747 40.3849 11.7456 40.2482 11.9302C40.1183 12.1079 40.0226 12.2515 39.9611 12.3608V18.1748C39.9611 18.4072 40.009 18.5986 40.1047 18.749C40.2004 18.8994 40.3439 19.0156 40.5353 19.0977C40.6789 19.166 40.8327 19.2173 40.9968 19.2515C41.1677 19.2856 41.342 19.3096 41.5197 19.3232V20H36.5671V19.3232C36.7243 19.3096 36.8849 19.2959 37.049 19.2822C37.2199 19.2686 37.3669 19.2412 37.4899 19.2002C37.6813 19.1387 37.8215 19.0327 37.9103 18.8823C38.006 18.7251 38.0539 18.5234 38.0539 18.2773V12.0327C38.0539 11.8003 38.0026 11.5884 37.9001 11.397C37.8044 11.1987 37.6677 11.0381 37.4899 10.915C37.36 10.833 37.2062 10.7749 37.0285 10.7407C36.8508 10.6997 36.6594 10.6724 36.4543 10.6587V9.99219L39.8176 9.7666L39.9611 9.91016V11.3354H40.0124C40.1764 11.1714 40.3815 10.9766 40.6276 10.751C40.8737 10.5186 41.1061 10.3306 41.3249 10.187C41.5778 10.0229 41.8786 9.88623 42.2272 9.77686C42.5759 9.66748 42.9689 9.61279 43.4064 9.61279C44.3771 9.61279 45.0949 9.91699 45.5597 10.5254C46.0314 11.127 46.2673 11.9302 46.2673 12.9351V18.1953C46.2673 18.4346 46.3083 18.6294 46.3903 18.7798C46.4723 18.9233 46.6125 19.0361 46.8107 19.1182C46.9748 19.1865 47.1149 19.2344 47.2311 19.2617C47.3542 19.2891 47.5217 19.3096 47.7336 19.3232V20ZM59.6285 19.8154L56.1012 20.041L55.9474 19.8975V18.9541L55.8653 18.9336C55.5099 19.3301 55.0689 19.6548 54.5426 19.9077C54.023 20.1606 53.4864 20.2871 52.9327 20.2871C52.3585 20.2871 51.8014 20.1606 51.2613 19.9077C50.7281 19.6479 50.2633 19.2856 49.8668 18.8208C49.4635 18.3491 49.1422 17.7817 48.9029 17.1187C48.6705 16.4556 48.5543 15.7241 48.5543 14.9243C48.5543 14.1929 48.6808 13.499 48.9337 12.8428C49.1866 12.1865 49.5353 11.6123 49.9796 11.1201C50.3966 10.6621 50.9059 10.2964 51.5074 10.0229C52.1158 9.74951 52.7345 9.61279 53.3634 9.61279C53.8351 9.61279 54.2965 9.67432 54.7477 9.79736C55.2057 9.91357 55.5987 10.064 55.9269 10.2485V6.73145C55.9269 6.44434 55.879 6.18457 55.7833 5.95215C55.6876 5.71289 55.5543 5.53174 55.3834 5.40869C55.192 5.27881 54.9322 5.18652 54.6041 5.13184C54.2828 5.07031 53.9342 5.02588 53.5582 4.99854V4.36279L57.6905 4.12695L57.8443 4.28076V17.9185C57.8443 18.1577 57.8888 18.3628 57.9776 18.5337C58.0733 18.6978 58.2101 18.8379 58.3878 18.9541C58.5177 19.0361 58.7057 19.0874 58.9518 19.1079C59.1979 19.1284 59.4234 19.1421 59.6285 19.1489V19.8154ZM55.9269 18.0415V12.125C55.8722 11.9473 55.7833 11.7559 55.6603 11.5508C55.5372 11.3457 55.3834 11.1577 55.1988 10.9868C55.0006 10.8159 54.7682 10.6758 54.5016 10.5664C54.235 10.4502 53.9239 10.3921 53.5685 10.3921C53.1583 10.3921 52.7789 10.498 52.4303 10.71C52.0885 10.9219 51.7843 11.2261 51.5177 11.6226C51.2647 12.0054 51.0631 12.4941 50.9127 13.0889C50.7691 13.6768 50.6974 14.3296 50.6974 15.0474C50.6974 15.6216 50.7521 16.1445 50.8614 16.6162C50.9708 17.0811 51.1554 17.5151 51.4151 17.9185C51.6544 18.3013 51.9586 18.6089 52.3277 18.8413C52.7037 19.0737 53.148 19.1899 53.6607 19.1899C54.2076 19.1899 54.6588 19.0703 55.0143 18.8311C55.3766 18.5918 55.6808 18.3286 55.9269 18.0415ZM78.6708 20H72.6108V19.272C73.144 19.2378 73.5849 19.1694 73.9335 19.0669C74.289 18.9644 74.4667 18.8379 74.4667 18.6875C74.4667 18.626 74.4599 18.5508 74.4462 18.4619C74.4326 18.373 74.412 18.2944 74.3847 18.2261L73.1747 14.9653H68.0786C67.8871 15.4438 67.7299 15.8608 67.6069 16.2163C67.4907 16.5718 67.3847 16.8999 67.289 17.2007C67.2001 17.4946 67.1386 17.7339 67.1044 17.9185C67.0703 18.103 67.0532 18.2534 67.0532 18.3696C67.0532 18.6431 67.2685 18.855 67.6992 19.0054C68.1298 19.1558 68.6152 19.2446 69.1552 19.272V20H63.6796V19.272C63.8574 19.2583 64.0795 19.2207 64.3461 19.1592C64.6127 19.0908 64.8315 19.002 65.0024 18.8926C65.2758 18.708 65.4877 18.5166 65.6381 18.3184C65.7885 18.1133 65.9355 17.833 66.079 17.4775C66.8105 15.6523 67.6171 13.6016 68.499 11.3252C69.3808 9.04883 70.1669 7.02197 70.8574 5.24463H71.6777L76.5278 17.7954C76.6303 18.062 76.7465 18.2773 76.8764 18.4414C77.0063 18.6055 77.1874 18.7661 77.4199 18.9233C77.5771 19.019 77.7822 19.1011 78.0351 19.1694C78.288 19.231 78.4999 19.2651 78.6708 19.272V20ZM72.8056 14.0527L70.601 8.41309L68.4374 14.0527H72.8056ZM83.183 20.2666C81.7201 20.2666 80.5751 19.7812 79.7479 18.8105C78.9208 17.8398 78.5072 16.5376 78.5072 14.9038C78.5072 14.1929 78.6166 13.5298 78.8353 12.9146C79.0609 12.2925 79.3856 11.7285 79.8094 11.2227C80.2128 10.7373 80.7186 10.3477 81.327 10.0537C81.9354 9.75293 82.5985 9.60254 83.3163 9.60254C84.3075 9.60254 85.1141 9.8418 85.7362 10.3203C86.3583 10.792 86.6693 11.438 86.6693 12.2583C86.6693 12.6001 86.5873 12.9043 86.4232 13.1709C86.2591 13.4307 85.9891 13.5605 85.6131 13.5605C85.2098 13.5605 84.8954 13.458 84.6698 13.2529C84.451 13.0479 84.3417 12.8188 84.3417 12.5659C84.3417 12.2583 84.3827 11.9438 84.4647 11.6226C84.5467 11.2944 84.5946 11.0552 84.6083 10.9048C84.4852 10.6929 84.3006 10.5527 84.0546 10.4844C83.8153 10.4092 83.5555 10.3716 83.2753 10.3716C82.9471 10.3716 82.6327 10.4434 82.3319 10.5869C82.0379 10.7236 81.7508 10.98 81.4706 11.356C81.2176 11.6978 81.0126 12.1592 80.8553 12.7402C80.6981 13.3213 80.6195 14.0151 80.6195 14.8218C80.6195 16.0933 80.8998 17.1323 81.4603 17.939C82.0277 18.7388 82.7694 19.1387 83.6854 19.1387C84.3485 19.1387 84.9022 18.978 85.3465 18.6567C85.7977 18.3354 86.2147 17.8535 86.5975 17.2109L87.2538 17.6416C86.8026 18.4482 86.2079 19.0874 85.4696 19.5591C84.7313 20.0308 83.9691 20.2666 83.183 20.2666ZM92.2991 20.2666C90.8362 20.2666 89.6912 19.7812 88.864 18.8105C88.0369 17.8398 87.6233 16.5376 87.6233 14.9038C87.6233 14.1929 87.7327 13.5298 87.9514 12.9146C88.177 12.2925 88.5017 11.7285 88.9256 11.2227C89.3289 10.7373 89.8347 10.3477 90.4431 10.0537C91.0515 9.75293 91.7146 9.60254 92.4324 9.60254C93.4236 9.60254 94.2303 9.8418 94.8523 10.3203C95.4744 10.792 95.7854 11.438 95.7854 12.2583C95.7854 12.6001 95.7034 12.9043 95.5393 13.1709C95.3753 13.4307 95.1053 13.5605 94.7293 13.5605C94.326 13.5605 94.0115 13.458 93.7859 13.2529C93.5672 13.0479 93.4578 12.8188 93.4578 12.5659C93.4578 12.2583 93.4988 11.9438 93.5808 11.6226C93.6629 11.2944 93.7107 11.0552 93.7244 10.9048C93.6013 10.6929 93.4168 10.5527 93.1707 10.4844C92.9314 10.4092 92.6717 10.3716 92.3914 10.3716C92.0633 10.3716 91.7488 10.4434 91.448 10.5869C91.1541 10.7236 90.867 10.98 90.5867 11.356C90.3338 11.6978 90.1287 12.1592 89.9715 12.7402C89.8142 13.3213 89.7356 14.0151 89.7356 14.8218C89.7356 16.0933 90.0159 17.1323 90.5764 17.939C91.1438 18.7388 91.8855 19.1387 92.8015 19.1387C93.4646 19.1387 94.0183 18.978 94.4627 18.6567C94.9138 18.3354 95.3308 17.8535 95.7137 17.2109L96.3699 17.6416C95.9187 18.4482 95.324 19.0874 94.5857 19.5591C93.8474 20.0308 93.0852 20.2666 92.2991 20.2666ZM106.593 14.8423C106.593 15.5532 106.481 16.2539 106.255 16.9443C106.029 17.6279 105.708 18.209 105.291 18.6875C104.82 19.2344 104.273 19.6411 103.651 19.9077C103.029 20.1743 102.331 20.3076 101.559 20.3076C100.916 20.3076 100.304 20.188 99.7233 19.9487C99.1423 19.7026 98.6262 19.3472 98.175 18.8823C97.7307 18.4243 97.3752 17.8672 97.1086 17.2109C96.8488 16.5479 96.7189 15.8062 96.7189 14.9858C96.7189 13.4067 97.177 12.1147 98.093 11.1099C99.0158 10.105 100.222 9.60254 101.713 9.60254C103.128 9.60254 104.293 10.0811 105.209 11.0381C106.132 11.9883 106.593 13.2563 106.593 14.8423ZM104.471 14.8628C104.471 14.3501 104.42 13.8101 104.317 13.2427C104.215 12.6685 104.061 12.1831 103.856 11.7866C103.637 11.3628 103.35 11.0244 102.994 10.7715C102.639 10.5117 102.205 10.3818 101.692 10.3818C101.166 10.3818 100.715 10.5117 100.339 10.7715C99.9694 11.0312 99.6687 11.3867 99.4362 11.8379C99.2175 12.2549 99.0637 12.73 98.9748 13.2632C98.8859 13.7964 98.8415 14.3125 98.8415 14.8115C98.8415 15.4678 98.8928 16.0762 98.9953 16.6367C99.1047 17.1904 99.2756 17.686 99.508 18.1235C99.7404 18.561 100.031 18.9062 100.38 19.1592C100.735 19.4053 101.173 19.5283 101.692 19.5283C102.547 19.5283 103.223 19.1147 103.722 18.2876C104.221 17.4604 104.471 16.3188 104.471 14.8628ZM118.478 19.8154L115.187 20.041L115.033 19.8975V18.6157H114.971C114.807 18.7866 114.623 18.9712 114.418 19.1694C114.213 19.3608 113.977 19.5352 113.71 19.6924C113.402 19.877 113.105 20.0171 112.818 20.1128C112.531 20.2085 112.124 20.2563 111.598 20.2563C110.702 20.2563 110.019 19.9658 109.547 19.3848C109.082 18.7969 108.85 17.9458 108.85 16.8315V11.9917C108.85 11.7456 108.802 11.5405 108.706 11.3765C108.617 11.2056 108.484 11.0586 108.306 10.9355C108.183 10.8535 108.029 10.7954 107.845 10.7612C107.66 10.7202 107.465 10.6929 107.26 10.6792V10.0127L110.634 9.7666L110.788 9.91016V16.9341C110.788 17.6655 110.952 18.2158 111.28 18.585C111.608 18.9541 112.001 19.1387 112.459 19.1387C112.835 19.1387 113.17 19.0806 113.464 18.9644C113.758 18.8481 114.004 18.7114 114.202 18.5542C114.387 18.4106 114.547 18.2603 114.684 18.103C114.828 17.939 114.937 17.7886 115.012 17.6519V11.9199C115.012 11.6943 114.964 11.4961 114.869 11.3252C114.773 11.1475 114.64 10.9971 114.469 10.874C114.346 10.792 114.161 10.7441 113.915 10.7305C113.676 10.71 113.406 10.6929 113.105 10.6792V10.0127L116.776 9.7666L116.93 9.91016V17.939C116.93 18.1714 116.978 18.3696 117.073 18.5337C117.169 18.6978 117.302 18.8379 117.473 18.9541C117.596 19.0293 117.743 19.0806 117.914 19.1079C118.085 19.1284 118.273 19.1421 118.478 19.1489V19.8154ZM130.465 20H125.513V19.3232C125.67 19.3096 125.841 19.2959 126.025 19.2822C126.217 19.2686 126.374 19.2412 126.497 19.2002C126.689 19.1387 126.829 19.0327 126.918 18.8823C127.013 18.7251 127.061 18.5234 127.061 18.2773V13.0786C127.061 12.3608 126.89 11.8071 126.548 11.4175C126.213 11.0278 125.803 10.833 125.318 10.833C124.956 10.833 124.624 10.8911 124.323 11.0073C124.022 11.1167 123.756 11.2534 123.523 11.4175C123.298 11.5747 123.117 11.7456 122.98 11.9302C122.85 12.1079 122.754 12.2515 122.693 12.3608V18.1748C122.693 18.4072 122.741 18.5986 122.836 18.749C122.932 18.8994 123.076 19.0156 123.267 19.0977C123.411 19.166 123.564 19.2173 123.729 19.2515C123.899 19.2856 124.074 19.3096 124.252 19.3232V20H119.299V19.3232C119.456 19.3096 119.617 19.2959 119.781 19.2822C119.952 19.2686 120.099 19.2412 120.222 19.2002C120.413 19.1387 120.553 19.0327 120.642 18.8823C120.738 18.7251 120.786 18.5234 120.786 18.2773V12.0327C120.786 11.8003 120.734 11.5884 120.632 11.397C120.536 11.1987 120.399 11.0381 120.222 10.915C120.092 10.833 119.938 10.7749 119.76 10.7407C119.583 10.6997 119.391 10.6724 119.186 10.6587V9.99219L122.549 9.7666L122.693 9.91016V11.3354H122.744C122.908 11.1714 123.113 10.9766 123.359 10.751C123.606 10.5186 123.838 10.3306 124.057 10.187C124.31 10.0229 124.61 9.88623 124.959 9.77686C125.308 9.66748 125.701 9.61279 126.138 9.61279C127.109 9.61279 127.827 9.91699 128.292 10.5254C128.763 11.127 128.999 11.9302 128.999 12.9351V18.1953C128.999 18.4346 129.04 18.6294 129.122 18.7798C129.204 18.9233 129.344 19.0361 129.543 19.1182C129.707 19.1865 129.847 19.2344 129.963 19.2617C130.086 19.2891 130.253 19.3096 130.465 19.3232V20ZM137.531 19.5591C137.086 19.7437 136.666 19.8975 136.269 20.0205C135.873 20.1504 135.388 20.2153 134.813 20.2153C133.966 20.2153 133.368 20.0034 133.019 19.5796C132.677 19.1489 132.506 18.5439 132.506 17.7646V10.915H130.681V9.93066H132.547V6.78271H134.414V9.93066H137.315V10.915H134.434V16.5649C134.434 16.9888 134.448 17.3442 134.475 17.6313C134.509 17.9116 134.584 18.1577 134.701 18.3696C134.81 18.5679 134.974 18.7183 135.193 18.8208C135.412 18.9233 135.706 18.9746 136.075 18.9746C136.246 18.9746 136.495 18.9609 136.823 18.9336C137.158 18.8994 137.394 18.8584 137.531 18.8105V19.5591ZM143.037 20H138.146V19.3232C138.304 19.3096 138.464 19.2959 138.628 19.2822C138.799 19.2686 138.946 19.2412 139.069 19.2002C139.261 19.1387 139.401 19.0327 139.49 18.8823C139.585 18.7251 139.633 18.5234 139.633 18.2773V12.0327C139.633 11.814 139.582 11.6157 139.479 11.438C139.384 11.2534 139.247 11.0996 139.069 10.9766C138.939 10.8945 138.751 10.8262 138.505 10.7715C138.259 10.71 138.034 10.6724 137.828 10.6587V9.99219L141.397 9.7666L141.54 9.91016V18.1543C141.54 18.3936 141.585 18.5918 141.674 18.749C141.769 18.9062 141.916 19.0225 142.115 19.0977C142.265 19.1592 142.412 19.2104 142.556 19.2515C142.699 19.2856 142.86 19.3096 143.037 19.3232V20ZM141.745 5.77783C141.745 6.16748 141.616 6.50928 141.356 6.80322C141.103 7.09033 140.788 7.23389 140.412 7.23389C140.064 7.23389 139.76 7.09717 139.5 6.82373C139.247 6.54346 139.12 6.22559 139.12 5.87012C139.12 5.49414 139.247 5.16602 139.5 4.88574C139.76 4.60547 140.064 4.46533 140.412 4.46533C140.802 4.46533 141.12 4.59863 141.366 4.86523C141.619 5.125 141.745 5.4292 141.745 5.77783ZM155.025 20H150.072V19.3232C150.229 19.3096 150.4 19.2959 150.585 19.2822C150.776 19.2686 150.933 19.2412 151.056 19.2002C151.248 19.1387 151.388 19.0327 151.477 18.8823C151.573 18.7251 151.62 18.5234 151.62 18.2773V13.0786C151.62 12.3608 151.45 11.8071 151.108 11.4175C150.773 11.0278 150.363 10.833 149.877 10.833C149.515 10.833 149.183 10.8911 148.883 11.0073C148.582 11.1167 148.315 11.2534 148.083 11.4175C147.857 11.5747 147.676 11.7456 147.539 11.9302C147.409 12.1079 147.314 12.2515 147.252 12.3608V18.1748C147.252 18.4072 147.3 18.5986 147.396 18.749C147.492 18.8994 147.635 19.0156 147.826 19.0977C147.97 19.166 148.124 19.2173 148.288 19.2515C148.459 19.2856 148.633 19.3096 148.811 19.3232V20H143.858V19.3232C144.015 19.3096 144.176 19.2959 144.34 19.2822C144.511 19.2686 144.658 19.2412 144.781 19.2002C144.972 19.1387 145.113 19.0327 145.201 18.8823C145.297 18.7251 145.345 18.5234 145.345 18.2773V12.0327C145.345 11.8003 145.294 11.5884 145.191 11.397C145.096 11.1987 144.959 11.0381 144.781 10.915C144.651 10.833 144.497 10.7749 144.32 10.7407C144.142 10.6997 143.95 10.6724 143.745 10.6587V9.99219L147.109 9.7666L147.252 9.91016V11.3354H147.304C147.468 11.1714 147.673 10.9766 147.919 10.751C148.165 10.5186 148.397 10.3306 148.616 10.187C148.869 10.0229 149.17 9.88623 149.518 9.77686C149.867 9.66748 150.26 9.61279 150.698 9.61279C151.668 9.61279 152.386 9.91699 152.851 10.5254C153.323 11.127 153.558 11.9302 153.558 12.9351V18.1953C153.558 18.4346 153.599 18.6294 153.681 18.7798C153.763 18.9233 153.904 19.0361 154.102 19.1182C154.266 19.1865 154.406 19.2344 154.522 19.2617C154.645 19.2891 154.813 19.3096 155.025 19.3232V20ZM164.51 18.9541C164.783 19.2139 164.999 19.5078 165.156 19.8359C165.313 20.1641 165.392 20.5708 165.392 21.0562C165.392 21.5415 165.286 21.9961 165.074 22.4199C164.862 22.8506 164.541 23.2231 164.11 23.5376C163.652 23.8589 163.105 24.1084 162.469 24.2861C161.834 24.4639 161.048 24.5527 160.111 24.5527C158.58 24.5527 157.435 24.3271 156.676 23.876C155.917 23.4316 155.538 22.7788 155.538 21.9175C155.538 21.2202 155.811 20.6699 156.358 20.2666C156.905 19.8633 157.602 19.6445 158.45 19.6104V19.4668C158.245 19.4053 158.033 19.3301 157.814 19.2412C157.595 19.1455 157.407 19.0361 157.25 18.9131C157.072 18.7695 156.929 18.6021 156.82 18.4106C156.71 18.2124 156.655 17.9697 156.655 17.6826C156.655 17.3203 156.782 16.9888 157.035 16.688C157.295 16.3804 157.684 16.1172 158.204 15.8984V15.7446C157.548 15.437 157.038 15.0439 156.676 14.5654C156.314 14.0801 156.133 13.5195 156.133 12.8838C156.133 11.9268 156.488 11.1406 157.199 10.5254C157.917 9.91016 158.833 9.60254 159.947 9.60254C160.255 9.60254 160.559 9.6333 160.86 9.69482C161.167 9.75635 161.478 9.83496 161.793 9.93066H165.32V10.915H162.941V10.9766C163.194 11.2705 163.382 11.5952 163.505 11.9507C163.628 12.3062 163.69 12.6548 163.69 12.9966C163.69 13.8853 163.327 14.6372 162.603 15.2524C161.885 15.8677 161.048 16.1753 160.091 16.1753H158.85C158.693 16.23 158.529 16.3291 158.358 16.4727C158.187 16.6162 158.101 16.811 158.101 17.0571C158.101 17.3101 158.173 17.5049 158.317 17.6416C158.46 17.7715 158.634 17.8604 158.84 17.9082C159.038 17.9629 159.267 17.9971 159.527 18.0107C159.793 18.0244 160.067 18.0347 160.347 18.0415C160.648 18.0483 161.058 18.0688 161.577 18.103C162.104 18.1372 162.476 18.1577 162.695 18.1646C163.009 18.1782 163.324 18.2534 163.638 18.3901C163.96 18.5269 164.25 18.7148 164.51 18.9541ZM161.741 12.9556C161.741 12.1558 161.577 11.52 161.249 11.0483C160.928 10.5698 160.473 10.3306 159.885 10.3306C159.564 10.3306 159.287 10.3989 159.055 10.5356C158.829 10.6655 158.645 10.8535 158.501 11.0996C158.364 11.3252 158.265 11.5986 158.204 11.9199C158.149 12.2344 158.122 12.5591 158.122 12.894C158.122 13.6528 158.286 14.2715 158.614 14.75C158.949 15.2285 159.38 15.4678 159.906 15.4678C160.494 15.4678 160.945 15.2319 161.259 14.7603C161.581 14.2817 161.741 13.6802 161.741 12.9556ZM163.71 21.4355C163.71 21.0527 163.621 20.7383 163.444 20.4922C163.266 20.2461 162.996 20.0786 162.634 19.9897C162.442 19.9624 162.049 19.9316 161.454 19.8975C160.86 19.8633 160.169 19.8462 159.383 19.8462C158.645 19.9897 158.118 20.229 157.804 20.564C157.496 20.9058 157.342 21.3433 157.342 21.8765C157.342 22.1157 157.394 22.3447 157.496 22.5635C157.599 22.7822 157.777 22.9839 158.03 23.1685C158.269 23.3462 158.59 23.4897 158.993 23.5991C159.397 23.7153 159.889 23.7734 160.47 23.7734C161.475 23.7734 162.264 23.5786 162.839 23.189C163.42 22.8062 163.71 22.2217 163.71 21.4355Z" fill="black"/>
<rect y="22.9747" width="152.468" height="1.0443" fill="black"/>
</svg>
