<svg width="104" height="43" viewBox="0 0 104 43" fill="none" xmlns="http://www.w3.org/2000/svg">
<path d="M1.22303 28.6666C0.430974 26.4251 0 24.013 0 21.4999V14.3333H14.3333V28.6666H1.22303Z" fill="#4A4A4A"/>
<path d="M1.22303 28.6666C0.430974 26.4251 0 24.013 0 21.4999V14.3333H14.3333V28.6666H1.22303Z" fill="#161616"/>
<path d="M14.3477 41.796C8.28425 39.5468 3.46774 34.7308 1.21838 28.6667H14.3477V41.796Z" fill="#737373"/>
<path d="M14.3477 41.796C8.28425 39.5468 3.46774 34.7308 1.21838 28.6667H14.3477V41.796Z" fill="#262626"/>
<path d="M28.6667 1.22312V14.3333H14.3334V0H21.5C24.0129 0 26.4251 0.430989 28.6667 1.22312Z" fill="#4A4A4A"/>
<path d="M28.6667 1.22312V14.3333H14.3334V0H21.5C24.0129 0 26.4251 0.430989 28.6667 1.22312Z" fill="#161616"/>
<path d="M28.6667 41.7771C26.4253 42.5691 24.0131 43.0001 21.5 43.0001C18.9872 43.0001 16.575 42.5691 14.3334 41.777V28.6667H28.6667V41.7771Z" fill="#686868"/>
<path d="M28.6667 41.7771C26.4253 42.5691 24.0131 43.0001 21.5 43.0001C18.9872 43.0001 16.575 42.5691 14.3334 41.777V28.6667H28.6667V41.7771Z" fill="#3A3A3A"/>
<path d="M41.777 28.6667C39.6181 34.7761 34.7766 39.618 28.6667 41.7771V28.6667H41.777Z" fill="#484848"/>
<path d="M0 7.16667C0 3.20863 3.20863 0 7.16667 0H14.3333V14.3333H0V7.16667ZM7.16667 10.75C9.14569 10.75 10.75 9.14569 10.75 7.16667C10.75 5.18765 9.14569 3.58334 7.16667 3.58334C5.18765 3.58334 3.58334 5.18765 3.58334 7.16667C3.58334 9.14569 5.18765 10.75 7.16667 10.75Z" fill="black"/>
<path d="M0 7.16667C0 3.20863 3.20863 0 7.16667 0H14.3333V14.3333H0V7.16667ZM7.16667 10.75C9.14569 10.75 10.75 9.14569 10.75 7.16667C10.75 5.18765 9.14569 3.58334 7.16667 3.58334C5.18765 3.58334 3.58334 5.18765 3.58334 7.16667C3.58334 9.14569 5.18765 10.75 7.16667 10.75Z" fill="url(#paint0_linear_102_49002)" fill-opacity="0.1"/>
<path d="M41.7771 14.3333C42.5691 16.5747 43.0001 18.9869 43.0001 21.4999C43.0001 24.0128 42.5691 26.425 41.777 28.6666H28.6667V14.3333H41.7771Z" fill="#686868"/>
<path d="M41.7771 14.3333C42.5691 16.5747 43.0001 18.9869 43.0001 21.4999C43.0001 24.0128 42.5691 26.425 41.777 28.6666H28.6667V14.3333H41.7771Z" fill="#3A3A3A"/>
<path d="M28.6667 1.22314C34.7761 3.38204 39.618 8.22349 41.7771 14.3334H28.6667V1.22314Z" fill="#737373"/>
<path d="M28.6667 1.22314C34.7761 3.38204 39.618 8.22349 41.7771 14.3334H28.6667V1.22314Z" fill="#262626"/>
<path d="M14.3334 14.3333H28.6667V28.6666H14.3334V14.3333Z" fill="#737373"/>
<path d="M14.3334 14.3333H28.6667V28.6666H14.3334V14.3333Z" fill="#262626"/>
<path d="M64.696 33.884C62.7333 33.884 61.0693 33.5533 59.704 32.892C58.3387 32.2093 57.176 31.3347 56.216 30.268L59.416 27.036C60.9307 28.7427 62.7973 29.596 65.016 29.596C66.2107 29.596 67.096 29.3507 67.672 28.86C68.248 28.3693 68.536 27.7187 68.536 26.908C68.536 26.2893 68.3653 25.7773 68.024 25.372C67.6827 24.9453 66.9893 24.6573 65.944 24.508L63.736 24.22C61.368 23.9213 59.6293 23.2067 58.52 22.076C57.432 20.9453 56.888 19.4413 56.888 17.564C56.888 16.5613 57.08 15.644 57.464 14.812C57.848 13.98 58.392 13.2653 59.096 12.668C59.8213 12.0707 60.696 11.612 61.72 11.292C62.7653 10.9507 63.9493 10.78 65.272 10.78C66.9573 10.78 68.44 11.0467 69.72 11.58C71 12.1133 72.0987 12.892 73.016 13.916L69.784 17.18C69.2507 16.5613 68.6 16.06 67.832 15.676C67.0853 15.2707 66.136 15.068 64.984 15.068C63.896 15.068 63.0853 15.26 62.552 15.644C62.0187 16.028 61.752 16.5613 61.752 17.244C61.752 18.012 61.9547 18.5667 62.36 18.908C62.7867 19.2493 63.4693 19.4947 64.408 19.644L66.616 19.996C68.92 20.3587 70.6267 21.0733 71.736 22.14C72.8453 23.1853 73.4 24.6787 73.4 26.62C73.4 27.6867 73.208 28.668 72.824 29.564C72.44 30.46 71.8747 31.228 71.128 31.868C70.4027 32.508 69.496 33.0093 68.408 33.372C67.32 33.7133 66.0827 33.884 64.696 33.884ZM79.5448 14.908C78.5848 14.908 77.8808 14.6947 77.4328 14.268C77.0061 13.82 76.7928 13.2547 76.7928 12.572V11.868C76.7928 11.1853 77.0061 10.6307 77.4328 10.204C77.8808 9.756 78.5848 9.532 79.5448 9.532C80.5048 9.532 81.1981 9.756 81.6248 10.204C82.0728 10.6307 82.2968 11.1853 82.2968 11.868V12.572C82.2968 13.2547 82.0728 13.82 81.6248 14.268C81.1981 14.6947 80.5048 14.908 79.5448 14.908ZM77.1768 16.7H81.9128V33.5H77.1768V16.7ZM86.333 16.7H91.069V19.516H91.229C91.4637 18.5773 91.997 17.8093 92.829 17.212C93.6823 16.6147 94.653 16.316 95.741 16.316C97.8743 16.316 99.485 17.0627 100.573 18.556C101.661 20.0493 102.205 22.2253 102.205 25.084C102.205 27.9427 101.661 30.1293 100.573 31.644C99.485 33.1373 97.8743 33.884 95.741 33.884C95.1863 33.884 94.6637 33.7987 94.173 33.628C93.6823 33.4787 93.2343 33.2653 92.829 32.988C92.445 32.6893 92.1143 32.348 91.837 31.964C91.5597 31.5587 91.357 31.132 91.229 30.684H91.069V39.9H86.333V16.7ZM94.173 30.044C95.069 30.044 95.805 29.7347 96.381 29.116C96.9783 28.476 97.277 27.6227 97.277 26.556V23.644C97.277 22.5773 96.9783 21.7347 96.381 21.116C95.805 20.476 95.069 20.156 94.173 20.156C93.277 20.156 92.5303 20.38 91.933 20.828C91.357 21.2547 91.069 21.852 91.069 22.62V27.58C91.069 28.348 91.357 28.956 91.933 29.404C92.5303 29.8307 93.277 30.044 94.173 30.044Z" fill="black"/>
<defs>
<linearGradient id="paint0_linear_102_49002" x1="0" y1="0" x2="14.3333" y2="14.3333" gradientUnits="userSpaceOnUse">
<stop stop-opacity="0"/>
<stop offset="1" stop-color="#001485"/>
</linearGradient>
</defs>
</svg>
